<svg xmlns="http://www.w3.org/2000/svg" viewBox="0 0 50 50"><defs><style>.a{fill:#999}</style></defs><title>icon</title><path class="a" d="M34.62 21.15a13 13 0 0 0-4-9.51 13 13 0 0 0-9.51-4 13 13 0 0 0-9.51 4 13 13 0 0 0-4 9.51 13 13 0 0 0 4 9.51 13 13 0 0 0 9.51 4 13 13 0 0 0 9.51-4 13 13 0 0 0 4-9.51zm15.38 25A3.9 3.9 0 0 1 46.15 50a3.57 3.57 0 0 1-2.7-1.14L33.14 38.58a20.58 20.58 0 0 1-12 3.73 20.79 20.79 0 0 1-8.22-1.67A20.72 20.72 0 0 1 1.67 29.37a21.08 21.08 0 0 1 0-16.44A20.72 20.72 0 0 1 12.94 1.67a21.08 21.08 0 0 1 16.44 0 20.72 20.72 0 0 1 11.26 11.27 20.79 20.79 0 0 1 1.67 8.22 20.58 20.58 0 0 1-3.73 12l10.31 10.29a3.68 3.68 0 0 1 1.11 2.7z"/></svg>